<?xml version="1.0" encoding="utf-8"?>
<!-- Generator: Adobe Illustrator 15.0.0, SVG Export Plug-In . SVG Version: 6.00 Build 0)  -->
<!DOCTYPE svg PUBLIC "-//W3C//DTD SVG 1.1//EN" "http://www.w3.org/Graphics/SVG/1.1/DTD/svg11.dtd">
<svg version="1.1" id="Layer_1" xmlns="http://www.w3.org/2000/svg" xmlns:xlink="http://www.w3.org/1999/xlink" x="0px" y="0px"
	 width="250.062px" height="187.056px" viewBox="0 0 250.062 187.056" enable-background="new 0 0 250.062 187.056"
	 xml:space="preserve">
<g>
	<path fill="#F7E543" d="M157.28,55.196H90.309c-10.567,0-14.351,2.189-14.351,12.756v60.592c0,10.567,3.784,12.756,14.351,12.756
		h66.971c10.567,0,14.352-2.189,14.352-12.756V67.953C171.632,57.386,167.848,55.196,157.28,55.196z M131.618,65.888l32.408,0.007
		l0.016,30.372l-32.424-0.025V65.888z M123.679,62.4c2.826-0.001,3.499,4.444,0,4.779c-0.986,0.001-2.357-0.661-2.391-2.253
		C121.253,63.265,122.084,62.4,123.679,62.4z M120.7,80.397l5.954,0.025l0.025,10.876c-0.531,0-5.449-0.014-5.979-0.014V80.397z
		 M83.253,65.921l32.389-0.026l0.049,30.319L83.25,96.243L83.253,65.921z M83.25,130.799l-0.022-22.323l80.814-0.128
		c0,0,0.059,14.499,0.059,22.416L83.25,130.799z"/>
	<path fill="#F7E543" d="M126.668,44.857c0-1.652-1.338-1.395-2.989-1.395l0,0c-1.652,0-2.99-0.257-2.99,1.395v8.372
		c0,1.652,1.338,1.395,2.99,1.395l0,0c1.651,0,2.989,0.257,2.989-1.395V44.857z"/>
	<path fill="#F7E543" d="M125.171,22.872c0-4.954-0.669-4.186-1.495-4.186l0,0c-0.826,0-1.496-0.769-1.496,4.186v15.547
		c0,4.954,0.669,4.186,1.496,4.186l0,0c0.825,0,1.495,0.769,1.495-4.186V22.872z"/>
	<path fill="#F7E543" d="M124.424,0c0-2.478-0.335-2.092-0.748-2.092l0,0c-0.414,0-0.748-0.384-0.748,2.092v15.746
		c0,2.478,0.334,2.091,0.748,2.091l0,0c0.413,0,0.748,0.384,0.748-2.091V0z"/>
	<polyline fill="#F7E543" points="74.748,70.236 72.522,68.31 74.748,66.384 	"/>
	<polyline fill="#F7E543" points="74.748,74.088 72.522,72.163 74.748,70.236 	"/>
	<polyline fill="#F7E543" points="74.748,77.941 72.522,76.015 74.748,74.088 	"/>
	<polyline fill="#F7E543" points="74.748,81.793 72.522,79.868 74.748,77.941 	"/>
	<polyline fill="#F7E543" points="74.748,85.646 72.522,83.72 74.748,81.793 	"/>
	<polyline fill="#F7E543" points="74.748,89.499 72.522,87.572 74.748,85.646 	"/>
	<polyline fill="#F7E543" points="74.748,93.351 72.522,91.425 74.748,89.499 	"/>
	<polyline fill="#F7E543" points="74.748,97.204 72.522,95.277 74.748,93.351 	"/>
	<polyline fill="#F7E543" points="74.748,100.604 72.522,98.678 74.748,96.752 	"/>
	<polyline fill="#F7E543" points="74.748,104.457 72.522,102.531 74.748,100.604 	"/>
	<polyline fill="#F7E543" points="74.748,108.309 72.522,106.383 74.748,104.457 	"/>
	<polyline fill="#F7E543" points="74.748,112.162 72.522,110.235 74.748,108.309 	"/>
	<polyline fill="#F7E543" points="74.748,116.014 72.522,114.088 74.748,112.162 	"/>
	<polyline fill="#F7E543" points="74.748,119.866 72.522,117.94 74.748,116.014 	"/>
	<polyline fill="#F7E543" points="74.748,123.719 72.522,121.793 74.748,119.866 	"/>
	<polyline fill="#F7E543" points="74.748,127.572 72.522,125.646 74.748,123.719 	"/>
	<polyline fill="#F7E543" points="74.748,131.424 72.522,129.498 74.748,127.572 	"/>
	<polyline fill="#F7E543" points="172.479,70.236 174.706,68.31 172.479,66.384 	"/>
	<polyline fill="#F7E543" points="172.479,74.088 174.706,72.163 172.479,70.236 	"/>
	<polyline fill="#F7E543" points="172.479,77.941 174.706,76.015 172.479,74.088 	"/>
	<polyline fill="#F7E543" points="172.479,81.793 174.706,79.868 172.479,77.941 	"/>
	<polyline fill="#F7E543" points="172.479,85.646 174.706,83.72 172.479,81.793 	"/>
	<polyline fill="#F7E543" points="172.479,89.499 174.706,87.572 172.479,85.646 	"/>
	<polyline fill="#F7E543" points="172.479,93.351 174.706,91.425 172.479,89.499 	"/>
	<polyline fill="#F7E543" points="172.479,97.204 174.706,95.277 172.479,93.351 	"/>
	<polyline fill="#F7E543" points="172.479,100.604 174.706,98.678 172.479,96.752 	"/>
	<polyline fill="#F7E543" points="172.479,104.457 174.706,102.531 172.479,100.604 	"/>
	<polyline fill="#F7E543" points="172.479,108.309 174.706,106.383 172.479,104.457 	"/>
	<polyline fill="#F7E543" points="172.479,112.162 174.706,110.235 172.479,108.309 	"/>
	<polyline fill="#F7E543" points="172.479,116.014 174.706,114.088 172.479,112.162 	"/>
	<polyline fill="#F7E543" points="172.479,119.866 174.706,117.94 172.479,116.014 	"/>
	<polyline fill="#F7E543" points="172.479,123.719 174.706,121.793 172.479,119.866 	"/>
	<polyline fill="#F7E543" points="172.479,127.572 174.706,125.646 172.479,123.719 	"/>
	<polyline fill="#F7E543" points="172.479,131.424 174.706,129.498 172.479,127.572 	"/>
	<polygon fill="#F7E543" points="92.002,52.913 107.02,52.913 107.028,54.638 92.012,54.638 	"/>
	<polygon fill="#F7E543" points="140.317,52.913 155.334,52.913 155.344,54.638 140.326,54.638 	"/>
	<rect x="122.019" y="82.296" fill="#F7E543" width="3.32" height="7.036"/>
	<rect x="85.908" y="110.567" fill="#F7E543" width="75.474" height="17.54"/>
	<circle fill="#F7E543" cx="134.274" cy="68.576" r="0.797"/>
	<circle fill="#F7E543" cx="161.382" cy="93.557" r="0.797"/>
	<circle fill="#F7E543" cx="113.016" cy="93.558" r="0.797"/>
	<circle fill="#F7E543" cx="113.016" cy="68.576" r="0.797"/>
	<circle fill="#F7E543" cx="134.274" cy="93.557" r="0.797"/>
	<circle fill="#F7E543" cx="85.908" cy="68.576" r="0.797"/>
	<circle fill="#F7E543" cx="85.908" cy="93.557" r="0.797"/>
	<path fill="#F7E543" d="M99.515,66.715c-7.927,0-14.351,6.425-14.351,14.351c0,7.924,6.424,14.351,14.351,14.351
		c7.925,0,14.351-6.427,14.351-14.351C113.866,73.14,107.439,66.715,99.515,66.715z M99.462,86.169
		c-7.438-0.665-6.144-10.206,0.054-10.206C105.725,75.964,106.773,85.85,99.462,86.169"/>
	<path fill="#F7E543" d="M147.832,66.715c-7.926,0-14.352,6.425-14.352,14.351c0,7.924,6.426,14.351,14.352,14.351
		s14.351-6.427,14.351-14.351C162.183,73.14,155.756,66.715,147.832,66.715z M153.197,81.066c0,2.47-1.912,5.103-5.101,5.103
		c-7.067-0.465-6.519-10.008,0-10.206C150.498,75.812,153.197,77.98,153.197,81.066z"/>
</g>
<g>
	<path fill="#FFFFFF" d="M14.32,173.76c0,2.898-1.148,4.771-3.443,5.617l4.583,6.472h-4.971l-4.012-5.773H3.68v5.773h-4.038v-18.096
		h6.86c2.813,0,4.819,0.476,6.019,1.424C13.72,170.126,14.32,171.654,14.32,173.76z M9.453,175.908c0.5-0.447,0.75-1.16,0.75-2.135
		s-0.259-1.645-0.776-2.006c-0.518-0.363-1.424-0.544-2.718-0.544H3.68v5.357h2.951C8.012,176.581,8.953,176.357,9.453,175.908z"/>
	<path fill="#FFFFFF" d="M31.509,167.753v3.599H22.5v3.729h8.103v3.442H22.5v3.753h9.293v3.573H18.462v-18.096H31.509z"/>
	<path fill="#FFFFFF" d="M51.597,174.458l-4.893,9.889h-2.407l-4.867-9.889v11.391h-4.038v-18.096h5.462l4.66,9.941l4.686-9.941
		h5.436v18.096h-4.039V174.458z"/>
	<path fill="#FFFFFF" d="M75.309,183.351c-1.83,1.786-4.082,2.68-6.756,2.68c-2.675,0-4.928-0.894-6.756-2.68
		c-1.83-1.786-2.744-4.009-2.744-6.667c0-2.657,0.914-4.879,2.744-6.665c1.829-1.786,4.081-2.68,6.756-2.68
		c2.675,0,4.927,0.894,6.756,2.68s2.744,4.008,2.744,6.665C78.053,179.342,77.139,181.565,75.309,183.351z M73.937,176.699
		c0-1.614-0.518-2.991-1.553-4.13c-1.035-1.139-2.308-1.709-3.818-1.709s-2.783,0.57-3.818,1.709
		c-1.036,1.139-1.554,2.516-1.554,4.13c0,1.613,0.518,2.985,1.554,4.115c1.035,1.131,2.308,1.696,3.818,1.696
		s2.783-0.565,3.818-1.696C73.419,179.684,73.937,178.312,73.937,176.699z"/>
	<path fill="#FFFFFF" d="M88.641,171.249v14.601h-4.038v-14.601h-5.125v-3.495h14.29v3.495H88.641z"/>
	<path fill="#FFFFFF" d="M109.765,167.753v3.599h-9.009v3.729h8.103v3.442h-8.103v3.753h9.294v3.573H96.717v-18.096H109.765z"/>
	<path fill="#FFFFFF" d="M128.791,182.276c1.983,0,3.606-0.784,4.866-2.355l2.589,2.667c-2.055,2.312-4.475,3.469-7.261,3.469
		c-2.788,0-5.083-0.88-6.887-2.641c-1.804-1.76-2.705-3.982-2.705-6.666s0.919-4.923,2.757-6.718
		c1.838-1.794,4.086-2.692,6.744-2.692c2.968,0,5.453,1.131,7.455,3.392l-2.511,2.848c-1.277-1.588-2.864-2.382-4.763-2.382
		c-1.52,0-2.818,0.496-3.897,1.488c-1.079,0.993-1.618,2.33-1.618,4.014c0,1.682,0.509,3.032,1.527,4.05
		C126.107,181.768,127.341,182.276,128.791,182.276z"/>
	<path fill="#FFFFFF" d="M154.264,183.351c-1.83,1.786-4.082,2.68-6.758,2.68c-2.675,0-4.926-0.894-6.756-2.68
		c-1.829-1.786-2.743-4.009-2.743-6.667c0-2.657,0.914-4.879,2.743-6.665c1.83-1.786,4.081-2.68,6.756-2.68
		c2.676,0,4.928,0.894,6.758,2.68c1.829,1.786,2.743,4.008,2.743,6.665C157.007,179.342,156.093,181.565,154.264,183.351z
		 M152.892,176.699c0-1.614-0.518-2.991-1.554-4.13c-1.035-1.139-2.309-1.709-3.817-1.709c-1.511,0-2.784,0.57-3.819,1.709
		s-1.553,2.516-1.553,4.13c0,1.613,0.518,2.985,1.553,4.115c1.035,1.131,2.309,1.696,3.819,1.696c1.509,0,2.782-0.565,3.817-1.696
		C152.374,179.684,152.892,178.312,152.892,176.699z"/>
	<path fill="#FFFFFF" d="M173.084,167.753h4.038v18.096h-4.038l-8.621-11.338v11.338h-4.039v-18.096h3.78l8.88,11.649V167.753z"/>
	<path fill="#FFFFFF" d="M189.235,171.249v14.601h-4.038v-14.601h-5.125v-3.495h14.289v3.495H189.235z"/>
	<path fill="#FFFFFF" d="M211.991,173.76c0,2.898-1.147,4.771-3.442,5.617l4.582,6.472h-4.971l-4.013-5.773h-2.796v5.773h-4.039
		v-18.096h6.861c2.812,0,4.818,0.476,6.019,1.424C211.391,170.126,211.991,171.654,211.991,173.76z M207.125,175.908
		c0.5-0.447,0.75-1.16,0.75-2.135s-0.259-1.645-0.776-2.006c-0.518-0.363-1.424-0.544-2.718-0.544h-3.029v5.357h2.951
		C205.683,176.581,206.623,176.357,207.125,175.908z"/>
	<path fill="#FFFFFF" d="M231.174,183.351c-1.83,1.786-4.082,2.68-6.758,2.68c-2.675,0-4.926-0.894-6.756-2.68
		c-1.829-1.786-2.743-4.009-2.743-6.667c0-2.657,0.914-4.879,2.743-6.665c1.83-1.786,4.081-2.68,6.756-2.68
		c2.676,0,4.928,0.894,6.758,2.68c1.829,1.786,2.743,4.008,2.743,6.665C233.917,179.342,233.003,181.565,231.174,183.351z
		 M229.802,176.699c0-1.614-0.518-2.991-1.554-4.13c-1.035-1.139-2.308-1.709-3.817-1.709c-1.511,0-2.784,0.57-3.819,1.709
		s-1.553,2.516-1.553,4.13c0,1.613,0.518,2.985,1.553,4.115c1.035,1.131,2.309,1.696,3.819,1.696c1.51,0,2.782-0.565,3.817-1.696
		C229.284,179.684,229.802,178.312,229.802,176.699z"/>
	<path fill="#FFFFFF" d="M237.333,185.849v-18.096h4.039v14.497h7.714v3.599H237.333z"/>
</g>
</svg>
